<svg width="29" height="29" viewBox="0 0 29 29" fill="none" xmlns="http://www.w3.org/2000/svg">
<circle cx="14.5" cy="14.5" r="13.75" stroke="#AEC2B6" stroke-width="1.5"/>
<path fill-rule="evenodd" clip-rule="evenodd" d="M6 14.5C6 14.8273 6.2652 15.0933 6.5933 15.0933H8.2015C8.33982 16.5596 8.98534 17.9318 10.0268 18.9732C11.0682 20.0147 12.4404 20.6602 13.9067 20.7985V22.4067C13.9067 22.5641 13.9692 22.715 14.0805 22.8262C14.1917 22.9375 14.3426 23 14.5 23C14.6574 23 14.8083 22.9375 14.9195 22.8262C15.0308 22.715 15.0933 22.5641 15.0933 22.4067V20.7985C16.5596 20.6602 17.9318 20.0147 18.9732 18.9732C20.0147 17.9318 20.6602 16.5596 20.7985 15.0933H22.4067C22.5641 15.0933 22.715 15.0308 22.8262 14.9195C22.9375 14.8083 23 14.6574 23 14.5C23 14.3426 22.9375 14.1917 22.8262 14.0805C22.715 13.9692 22.5641 13.9067 22.4067 13.9067H20.7985C20.6602 12.4404 20.0147 11.0682 18.9732 10.0268C17.9318 8.98534 16.5596 8.33982 15.0933 8.2015V6.5933C15.0933 6.43595 15.0308 6.28504 14.9195 6.17377C14.8083 6.06251 14.6574 6 14.5 6C14.3426 6 14.1917 6.06251 14.0805 6.17377C13.9692 6.28504 13.9067 6.43595 13.9067 6.5933V8.2015C12.4404 8.33982 11.0682 8.98534 10.0268 10.0268C8.98534 11.0682 8.33982 12.4404 8.2015 13.9067H6.5933C6.43595 13.9067 6.28504 13.9692 6.17377 14.0805C6.06251 14.1917 6 14.3426 6 14.5ZM11.5352 14.5C11.5352 13.7137 11.8476 12.9596 12.4036 12.4036C12.9596 11.8476 13.7137 11.5352 14.5 11.5352C15.2863 11.5352 16.0404 11.8476 16.5964 12.4036C17.1524 12.9596 17.4648 13.7137 17.4648 14.5C17.4648 15.2863 17.1524 16.0404 16.5964 16.5964C16.0404 17.1524 15.2863 17.4648 14.5 17.4648C13.7137 17.4648 12.9596 17.1524 12.4036 16.5964C11.8476 16.0404 11.5352 15.2863 11.5352 14.5Z" fill="#AEC2B6"/>
<path d="M12.7209 14.5001C12.7209 14.0283 12.9084 13.5758 13.242 13.2421C13.5757 12.9085 14.0282 12.7211 14.5 12.7211C14.9718 12.7211 15.4243 12.9085 15.758 13.2421C16.0916 13.5758 16.279 14.0283 16.279 14.5001C16.279 14.972 16.0916 15.4245 15.758 15.7581C15.4243 16.0917 14.9718 16.2792 14.5 16.2792C14.0282 16.2792 13.5757 16.0917 13.242 15.7581C12.9084 15.4245 12.7209 14.972 12.7209 14.5001Z" fill="#AEC2B6"/>
</svg>
