<svg width="29" height="29" viewBox="0 0 29 29" fill="none" xmlns="http://www.w3.org/2000/svg">
<circle cx="14.5" cy="14.5" r="13.75" stroke="#AEC2B6" stroke-width="1.5"/>
<path d="M8 18.0837V21H10.9163L19.5173 12.3989L16.6011 9.48268L8 18.0837ZM21.7726 10.1437C21.8447 10.0718 21.9019 9.98629 21.9409 9.89222C21.9799 9.79814 22 9.69729 22 9.59544C22 9.49359 21.9799 9.39274 21.9409 9.29866C21.9019 9.20458 21.8447 9.11912 21.7726 9.04718L19.9528 7.22743C19.8809 7.15533 19.7954 7.09814 19.7013 7.05911C19.6073 7.02009 19.5064 7 19.4046 7C19.3027 7 19.2019 7.02009 19.1078 7.05911C19.0137 7.09814 18.9282 7.15533 18.8563 7.22743L17.4332 8.65057L20.3494 11.5668L21.7726 10.1437Z" fill="#AEC2B6"/>
</svg>
