<svg width="29" height="29" viewBox="0 0 29 29" fill="none" xmlns="http://www.w3.org/2000/svg">
<circle cx="14.5" cy="14.5" r="13.75" stroke="#AEC2B6" stroke-width="1.5"/>
<path d="M10 9.93159C10 9.93159 10.0675 8.31005 11.5722 7.00986C12.4656 6.23791 13.5386 6.01434 14.5 6.00058C15.378 5.98927 16.1627 6.14504 16.6319 6.38483C17.4339 6.79661 19 7.79902 19 9.93159C19 12.1757 17.6322 13.1929 16.0773 14.3137C14.5225 15.4345 14.125 16.5337 14.125 17.7936" stroke="#AEC2B6" stroke-width="2" stroke-miterlimit="10" stroke-linecap="round"/>
<path d="M14.125 23.1C14.9534 23.1 15.625 22.396 15.625 21.5275C15.625 20.6591 14.9534 19.9551 14.125 19.9551C13.2966 19.9551 12.625 20.6591 12.625 21.5275C12.625 22.396 13.2966 23.1 14.125 23.1Z" fill="#AEC2B6"/>
</svg>
