<svg width="29" height="29" viewBox="0 0 29 29" fill="none" xmlns="http://www.w3.org/2000/svg">
<circle cx="14.5" cy="14.5" r="13.75" stroke="#AEC2B6" stroke-width="1.5"/>
<path d="M20.6194 7.01528C20.5011 6.98513 20.3766 7.00141 20.2685 7.06115L19.5 7.47231L18.725 7.05714C18.6556 7.01995 18.5791 7.00059 18.5014 7.00059C18.4238 7.00059 18.3473 7.01995 18.2779 7.05714L17.4932 7.47264L16.7188 7.05714C16.6492 7.01968 16.5723 7.00017 16.4944 7.00017C16.4165 7.00017 16.3397 7.01968 16.27 7.05714L15.5 7.4713L14.736 7.05814C14.6665 7.02042 14.5898 7.0006 14.512 7.00025C14.4341 6.9999 14.3573 7.01904 14.2875 7.05613L13.5 7.47298L12.725 7.0568C12.6555 7.01963 12.5788 7.00028 12.5011 7.00028C12.4234 7.00028 12.3468 7.01963 12.2772 7.0568L11.5 7.47231L10.7238 7.0568C10.6237 7.00306 10.5097 6.98684 10.4 7.01076C10.2903 7.03468 10.1913 7.09734 10.1188 7.18872C10.0406 7.28851 9.9985 7.41504 10 7.5453V15.5715L10.0016 15.5732H16C16.2653 15.5732 16.5196 15.6861 16.7071 15.887C16.8947 16.0879 17 16.3605 17 16.6446V20.125C17 21.1606 18.0335 22 19 22H19.375C19.806 22 20.2193 21.8166 20.5241 21.4901C20.8288 21.1635 21 20.7207 21 20.259V7.53592C21.0001 7.41602 20.9627 7.29955 20.8937 7.20516C20.8247 7.11077 20.7281 7.04391 20.6194 7.01528ZM18.5 13.9644H14.5157C14.2457 13.9644 14.0125 13.7421 14.0007 13.4528C13.9976 13.3805 14.0083 13.3083 14.032 13.2405C14.0557 13.1728 14.092 13.1109 14.1387 13.0586C14.1854 13.0062 14.2414 12.9646 14.3035 12.9361C14.3657 12.9077 14.4325 12.893 14.5 12.893H18.4844C18.7544 12.893 18.9875 13.1153 18.9994 13.4046C19.0025 13.4769 18.9918 13.5491 18.9681 13.6168C18.9443 13.6846 18.9081 13.7465 18.8614 13.7988C18.8147 13.8511 18.7586 13.8928 18.6965 13.9212C18.6344 13.9497 18.5676 13.9644 18.5 13.9644ZM18.5 11.2859H12.5157C12.2457 11.2859 12.0125 11.0636 12.0007 10.7743C11.9976 10.702 12.0083 10.6298 12.032 10.562C12.0557 10.4943 12.092 10.4323 12.1387 10.38C12.1854 10.3277 12.2414 10.2861 12.3035 10.2576C12.3657 10.2292 12.4325 10.2145 12.5 10.2145H18.4844C18.7544 10.2145 18.9875 10.4368 18.9994 10.7261C19.0025 10.7984 18.9918 10.8706 18.9681 10.9383C18.9443 11.0061 18.9081 11.068 18.8614 11.1203C18.8147 11.1726 18.7586 11.2143 18.6965 11.2427C18.6344 11.2712 18.5676 11.2859 18.5 11.2859Z" fill="#AEC2B6"/>
<path d="M16 20.125V17.1787C16 17.0366 15.9473 16.9003 15.8536 16.7998C15.7598 16.6994 15.6326 16.6429 15.5 16.6429H7C6.73477 16.6438 6.48066 16.7572 6.29325 16.9583C6.10585 17.1594 6.00041 17.4319 6 17.716C6 19.4085 6.18062 20.1123 6.45187 20.648C6.91219 21.5577 7.74563 22 9 22H16.6775C16.7022 22 16.7263 21.9922 16.7468 21.9776C16.7674 21.963 16.7834 21.9422 16.7929 21.9178C16.8024 21.8934 16.805 21.8666 16.8003 21.8406C16.7956 21.8147 16.7839 21.7908 16.7666 21.772C16.4709 21.4543 16 21.029 16 20.125Z" fill="#AEC2B6"/>
</svg>
