<svg width="29" height="29" viewBox="0 0 29 29" fill="none" xmlns="http://www.w3.org/2000/svg">
<circle cx="14.5" cy="14.5" r="13.75" stroke="#AEC2B6" stroke-width="1.5"/>
<path d="M14.5 9.31818V11.9091L18.25 8.45455L14.5 5V7.59091C12.5109 7.59091 10.6032 8.31883 9.1967 9.61453C7.79018 10.9102 7 12.6676 7 14.5C7 15.8559 7.43125 17.1168 8.1625 18.1791L9.53125 16.9182C9.09856 16.1746 8.87306 15.3437 8.875 14.5C8.875 13.1257 9.46763 11.8077 10.5225 10.8359C11.5774 9.86412 13.0082 9.31818 14.5 9.31818ZM20.8375 10.8209L19.4687 12.0818C19.8812 12.8073 20.125 13.6364 20.125 14.5C20.125 15.8743 19.5324 17.1923 18.4775 18.1641C17.4226 19.1359 15.9918 19.6818 14.5 19.6818V17.0909L10.75 20.5455L14.5 24V21.4091C16.4891 21.4091 18.3968 20.6812 19.8033 19.3855C21.2098 18.0898 22 16.3324 22 14.5C22 13.1441 21.5688 11.8832 20.8375 10.8209Z" fill="#AEC2B6"/>
</svg>
