<svg width="29" height="29" viewBox="0 0 29 29" fill="none" xmlns="http://www.w3.org/2000/svg">
<circle cx="14.5" cy="14.5" r="13.75" stroke="#AEC2B6" stroke-width="1.5"/>
<path d="M11.98 12.7867H14.9667V20.8133" stroke="#AEC2B6" stroke-width="2" stroke-linecap="round" stroke-linejoin="round"/>
<path d="M11.56 21H18" stroke="#AEC2B6" stroke-width="2" stroke-miterlimit="10" stroke-linecap="round"/>
<path d="M14.78 9.98666C14.4847 9.98666 14.1959 9.89908 13.9504 9.73499C13.7048 9.5709 13.5134 9.33768 13.4004 9.06481C13.2873 8.79193 13.2578 8.49168 13.3154 8.202C13.373 7.91232 13.5152 7.64623 13.7241 7.43739C13.9329 7.22854 14.199 7.08632 14.4887 7.02869C14.7784 6.97107 15.0786 7.00065 15.3515 7.11367C15.6244 7.2267 15.8576 7.4181 16.0217 7.66368C16.1858 7.90926 16.2733 8.19798 16.2733 8.49333C16.2733 8.88939 16.116 9.26922 15.836 9.54928C15.5559 9.82933 15.1761 9.98666 14.78 9.98666Z" fill="#AEC2B6"/>
</svg>
