<svg width="25" height="27" viewBox="0 0 25 27" fill="none" xmlns="http://www.w3.org/2000/svg">
<path d="M19.7368 27L18.9474 26.3662C16.3158 23.9577 14.4737 22.4366 14.4737 20.5352C14.4737 19.0141 15.7895 17.7465 17.3684 17.7465C18.2895 17.7465 19.2105 18.1268 19.7368 18.7606C20.2632 18.1268 21.1842 17.7465 22.1053 17.7465C23.6842 17.7465 25 18.8873 25 20.5352C25 22.4366 23.1579 23.9577 20.5263 26.3662L19.7368 27ZM2.63158 25.3521C1.93364 25.3521 1.26429 25.085 0.770772 24.6096C0.277255 24.1341 0 23.4893 0 22.8169V2.53521C0 1.12817 1.17105 0 2.63158 0H3.94737V8.87324L7.23684 6.97183L10.5263 8.87324V0H18.4211C19.119 0 19.7883 0.267102 20.2819 0.742546C20.7754 1.21799 21.0526 1.86283 21.0526 2.53521V14.0451L19.7368 13.9437C18.3514 13.9447 16.9906 14.2967 15.7909 14.9644C14.5912 15.632 13.5948 16.5918 12.9017 17.7475C12.2086 18.9032 11.8431 20.2142 11.8419 21.5489C11.8406 22.8837 12.2037 24.1952 12.8947 25.3521H2.63158Z" fill="white"/>
</svg>
