<svg width="25" height="25" viewBox="0 0 25 25" fill="none" xmlns="http://www.w3.org/2000/svg">
<path fill-rule="evenodd" clip-rule="evenodd" d="M24.125 12.5C24.125 18.9203 18.9203 24.125 12.5 24.125C6.07969 24.125 0.875 18.9203 0.875 12.5C0.875 6.07969 6.07969 0.875 12.5 0.875C18.9203 0.875 24.125 6.07969 24.125 12.5ZM13.7917 20.25C13.7917 20.9634 13.2134 21.5417 12.5 21.5417C11.7866 21.5417 11.2083 20.9634 11.2083 20.25C11.2083 19.5366 11.7866 18.9583 12.5 18.9583C13.2134 18.9583 13.7917 19.5366 13.7917 20.25ZM12.5 3.75C9.80761 3.75 7.625 5.93261 7.625 8.625H9.625C9.625 7.03718 10.9122 5.75 12.5 5.75H12.6218C14.1424 5.75 15.375 6.98265 15.375 8.50319V9.16603C15.375 9.95524 14.87 10.6559 14.1213 10.9055C12.5559 11.4273 11.5 12.8922 11.5 14.5423V17.6667H13.5V14.5423C13.5 13.7531 14.005 13.0524 14.7537 12.8029C16.3191 12.2811 17.375 10.8161 17.375 9.16603V8.50319C17.375 5.87808 15.2469 3.75 12.6218 3.75H12.5Z" fill="#AEC2B6"/>
</svg>
