<svg width="25" height="25" viewBox="0 0 25 25" fill="none" xmlns="http://www.w3.org/2000/svg">
<path d="M12.5 25C15.8152 25 18.9946 23.683 21.3388 21.3388C23.683 18.9946 25 15.8152 25 12.5C25 9.18479 23.683 6.00537 21.3388 3.66117C18.9946 1.31696 15.8152 0 12.5 0C9.18479 0 6.00537 1.31696 3.66117 3.66117C1.31696 6.00537 0 9.18479 0 12.5C0 15.8152 1.31696 18.9946 3.66117 21.3388C6.00537 23.683 9.18479 25 12.5 25ZM8.29102 8.07129C8.67676 6.98242 9.71191 6.25 10.8691 6.25H13.7158C15.4199 6.25 16.7969 7.63184 16.7969 9.33105C16.7969 10.4346 16.2061 11.4551 15.249 12.0068L13.6719 12.9102C13.6621 13.5449 13.1396 14.0625 12.5 14.0625C11.8506 14.0625 11.3281 13.54 11.3281 12.8906V12.2314C11.3281 11.8115 11.5527 11.4258 11.9189 11.2158L14.082 9.97559C14.3115 9.84375 14.4531 9.59961 14.4531 9.33594C14.4531 8.92578 14.1211 8.59863 13.7158 8.59863H10.8691C10.7031 8.59863 10.5566 8.70117 10.5029 8.85742L10.4834 8.91602C10.2686 9.52637 9.59473 9.84375 8.98926 9.62891C8.38379 9.41406 8.06152 8.74023 8.27637 8.13477L8.2959 8.07617L8.29102 8.07129ZM10.9375 17.1875C10.9375 16.7731 11.1021 16.3757 11.3951 16.0826C11.6882 15.7896 12.0856 15.625 12.5 15.625C12.9144 15.625 13.3118 15.7896 13.6049 16.0826C13.8979 16.3757 14.0625 16.7731 14.0625 17.1875C14.0625 17.6019 13.8979 17.9993 13.6049 18.2924C13.3118 18.5854 12.9144 18.75 12.5 18.75C12.0856 18.75 11.6882 18.5854 11.3951 18.2924C11.1021 17.9993 10.9375 17.6019 10.9375 17.1875Z" fill="white"/>
</svg>
