<svg width="23" height="23" viewBox="0 0 23 23" fill="none" xmlns="http://www.w3.org/2000/svg">
<g clip-path="url(#clip0_746_1096)">
<circle cx="11.5" cy="11.5" r="11.5" fill="#AEC2B6"/>
<path d="M11.5 4.41663C15.4121 4.41663 18.5833 7.58784 18.5833 11.5C18.5833 15.4121 15.4121 18.5833 11.5 18.5833C7.58786 18.5833 4.41666 15.4121 4.41666 11.5H5.83332C5.83343 12.8325 6.30313 14.1224 7.15991 15.143C8.01669 16.1636 9.20573 16.8496 10.5181 17.0805C11.8305 17.3114 13.1823 17.0724 14.3359 16.4055C15.4896 15.7386 16.3713 14.6865 16.8262 13.434C17.2811 12.1815 17.2801 10.8087 16.8233 9.55695C16.3665 8.30515 15.4831 7.25437 14.3285 6.58924C13.1738 5.92411 11.8216 5.68718 10.5096 5.92007C9.19758 6.15296 8.00959 6.84078 7.15436 7.86267L8.66666 9.37496H4.41666V5.12496L6.14995 6.85755C6.81419 6.09044 7.63584 5.47538 8.55902 5.05419C9.48221 4.63299 10.4853 4.41554 11.5 4.41663ZM12.2083 7.9583V11.206L14.5054 13.5031L13.5032 14.5054L10.7917 11.7925V7.9583H12.2083Z" fill="white"/>
</g>
<defs>
<clipPath id="clip0_746_1096">
<rect width="23" height="23" fill="white"/>
</clipPath>
</defs>
</svg>
