<svg width="19" height="22" viewBox="0 0 19 22" fill="none" xmlns="http://www.w3.org/2000/svg">
<path d="M4 6.13193V5.61204C4 3.46614 4 2.3932 4.6896 1.79511C5.37919 1.19703 6.44136 1.34877 8.56569 1.65224L12.8485 2.26408C15.3047 2.61495 16.5327 2.79039 17.2664 3.63628C18 4.48217 18 5.72271 18 8.20377V13.7962C18 16.2773 18 17.5178 17.2664 18.3637C16.5327 19.2096 15.3047 19.385 12.8485 19.7359L8.56568 20.3478C6.44136 20.6512 5.37919 20.803 4.6896 20.2049C4 19.6068 4 18.5339 4 16.388V16.066" stroke="#01CB37" stroke-width="2"/>
<path d="M13 11L13.7809 10.3753L14.2806 11L13.7809 11.6247L13 11ZM1 12C0.447715 12 0 11.5523 0 11C0 10.4477 0.447715 10 1 10V12ZM9.78087 5.3753L13.7809 10.3753L12.2191 11.6247L8.21913 6.6247L9.78087 5.3753ZM13.7809 11.6247L9.78087 16.6247L8.21913 15.3753L12.2191 10.3753L13.7809 11.6247ZM13 12H1V10H13V12Z" fill="#01CB37"/>
</svg>
