<svg width="25" height="30" viewBox="0 0 25 30" fill="none" xmlns="http://www.w3.org/2000/svg">
<path d="M12.5 15.2866C13.3594 15.2866 14.0953 14.987 14.7078 14.3878C15.3203 13.7885 15.626 13.069 15.625 12.2293C15.625 11.3885 15.3187 10.6685 14.7062 10.0693C14.0938 9.47006 13.3583 9.17096 12.5 9.17197C11.6406 9.17197 10.9047 9.47159 10.2922 10.0708C9.67969 10.6701 9.37396 11.3896 9.375 12.2293C9.375 13.0701 9.68125 13.7901 10.2938 14.3893C10.9062 14.9885 11.6417 15.2876 12.5 15.2866ZM12.5 30C12.2917 30 12.0833 29.9618 11.875 29.8853C11.6667 29.8089 11.4844 29.707 11.3281 29.5796C7.52604 26.293 4.6875 23.2418 2.8125 20.426C0.9375 17.6102 0 14.9799 0 12.535C0 8.71338 1.25677 5.66879 3.77031 3.40127C6.28385 1.13376 9.19375 0 12.5 0C15.8073 0 18.7177 1.13376 21.2312 3.40127C23.7448 5.66879 25.001 8.71338 25 12.535C25 14.9809 24.0625 17.6117 22.1875 20.4275C20.3125 23.2433 17.474 26.294 13.6719 29.5796C13.5156 29.707 13.3333 29.8089 13.125 29.8853C12.9167 29.9618 12.7083 30 12.5 30Z" fill="white"/>
</svg>
