<svg width="26" height="26" viewBox="0 0 26 26" fill="none" xmlns="http://www.w3.org/2000/svg">
<path d="M2.80759 6.62588C3.48791 8.5261 4.89548 10.1448 6.2092 11.3178C7.10066 10.4028 8.74282 9.25334 10.0096 8.80761C9.2777 8.07568 7.99994 7.17327 7.45256 6.81356C7.22578 6.68844 6.77223 6.41475 6.77223 6.32091C7.16635 6.37722 9.51698 7.87706 10.643 8.61994L11.8629 8.26805L13.1767 7.98653C12.8248 7.21237 12.0271 6.20362 11.8629 6.0394C11.2293 5.40572 10.2208 4.538 8.50823 3.88113C7.08502 3.41976 4.06971 2.43603 3.39408 2.19205C2.573 1.95746 1.5877 1.13638 1.3531 1.01908C1.16543 0.948703 0.860455 1.066 1.07159 1.48827C1.28272 1.91054 2.08035 4.23302 2.24456 4.84297C2.37593 5.33092 2.67465 6.23489 2.80759 6.62588Z" fill="#DBE4C6" stroke="white"/>
<path d="M6.819 11.9043C5.20014 13.4557 3.98041 16.1348 3.65198 17.3703C3.59568 17.7081 3.67544 17.8552 3.72236 17.8864C3.82402 18.0037 4.16809 18.0788 4.73111 17.4407C6.67825 15.5639 9.98602 14.086 11.2763 13.5699C12.5666 13.0538 16.93 11.8339 16.0386 12.2796C12.3085 13.6168 11.2528 14.2737 8.88343 15.6812C6.51403 17.0888 5.15338 18.8013 3.91003 20.6312C2.91535 22.095 2.49465 23.7591 2.40863 24.4081C2.40863 24.5411 2.49308 24.8116 2.8309 24.8304C3.16872 24.8492 3.30009 24.6975 3.32355 24.6193C3.67544 23.4776 4.53405 21.1051 5.15338 20.7485C5.50527 20.4435 6.56095 20.42 7.14743 20.42C7.61856 20.42 9.12272 20.3872 11.6751 20.162C14.8421 19.6693 16.7893 18.121 17.1411 17.9333C17.493 17.7457 19.6513 15.9393 20.7539 14.3441C21.8565 12.7488 22.9356 10.7078 23.3579 9.9806C23.6863 9.32374 24.7185 7.89271 24.9297 7.54083C25.0001 7.42353 24.7889 6.99344 24.6716 6.95434C24.4605 6.88396 24.1321 7.16548 23.1468 7.54083C21.758 8.01002 17.9075 8.33063 16.1559 8.43229C14.0164 8.6575 12.4258 8.89678 11.159 9.27682C10.2441 9.5513 8.50808 10.2856 6.819 11.9043Z" fill="#AEC2B6" stroke="white"/>
</svg>
