<svg width="25" height="25" viewBox="0 0 25 25" fill="none" xmlns="http://www.w3.org/2000/svg">
<path d="M20.8333 8.33333H23.6111C23.9795 8.33333 24.3327 8.45876 24.5932 8.68202C24.8537 8.90527 25 9.20808 25 9.52381V23.8095C25 24.1253 24.8537 24.4281 24.5932 24.6513C24.3327 24.8746 23.9795 25 23.6111 25H1.38889C1.02053 25 0.667263 24.8746 0.406796 24.6513C0.146329 24.4281 0 24.1253 0 23.8095V9.52381C0 9.20808 0.146329 8.90527 0.406796 8.68202C0.667263 8.45876 1.02053 8.33333 1.38889 8.33333H4.16667V7.14286C4.16667 5.24845 5.04464 3.43164 6.60744 2.09209C8.17025 0.752549 10.2899 0 12.5 0C14.7101 0 16.8298 0.752549 18.3926 2.09209C19.9554 3.43164 20.8333 5.24845 20.8333 7.14286V8.33333ZM11.1111 17.5381V20.2381H13.8889V17.5381C14.4184 17.276 14.8323 16.8715 15.0662 16.3873C15.3002 15.9031 15.3413 15.3662 15.183 14.8599C15.0247 14.3537 14.676 13.9063 14.1909 13.5873C13.7058 13.2682 13.1115 13.0953 12.5 13.0952C11.8885 13.0953 11.2942 13.2682 10.8091 13.5873C10.324 13.9063 9.97526 14.3537 9.817 14.8599C9.65874 15.3662 9.69978 15.9031 9.93376 16.3873C10.1677 16.8715 10.5816 17.276 11.1111 17.5381ZM18.0556 8.33333V7.14286C18.0556 5.87992 17.4702 4.66871 16.4284 3.77568C15.3865 2.88265 13.9734 2.38095 12.5 2.38095C11.0266 2.38095 9.6135 2.88265 8.57163 3.77568C7.52976 4.66871 6.94444 5.87992 6.94444 7.14286V8.33333H18.0556Z" fill="white"/>
</svg>
