<svg width="22" height="24" viewBox="0 0 22 24" fill="none" xmlns="http://www.w3.org/2000/svg">
<path d="M15.6667 7.33333V6.16667C15.6667 3.58934 13.5773 1.5 11 1.5V1.5C8.42268 1.5 6.33334 3.58934 6.33334 6.16667V7.33333" stroke="#AEC2B6" stroke-width="2" stroke-linecap="round"/>
<path fill-rule="evenodd" clip-rule="evenodd" d="M1.37868 7.04531C0.5 7.92399 0.5 9.3382 0.5 12.1666V15.6666C0.5 19.4379 0.5 21.3235 1.67157 22.4951C2.84315 23.6666 4.72876 23.6666 8.5 23.6666H13.5C17.2712 23.6666 19.1569 23.6666 20.3284 22.4951C21.5 21.3235 21.5 19.4379 21.5 15.6666V12.1666C21.5 9.3382 21.5 7.92399 20.6213 7.04531C19.7426 6.16663 18.3284 6.16663 15.5 6.16663H6.5C3.67157 6.16663 2.25736 6.16663 1.37868 7.04531ZM11 15.8333C11.8284 15.8333 12.5 15.1617 12.5 14.3333C12.5 13.5049 11.8284 12.8333 11 12.8333C10.1716 12.8333 9.5 13.5049 9.5 14.3333C9.5 15.1617 10.1716 15.8333 11 15.8333ZM14.5 14.3333C14.5 15.9188 13.4457 17.2581 12 17.6884V20.1666H10V17.6884C8.55426 17.2581 7.5 15.9188 7.5 14.3333C7.5 12.4003 9.067 10.8333 11 10.8333C12.933 10.8333 14.5 12.4003 14.5 14.3333Z" fill="#AEC2B6"/>
</svg>
